# xmcd
#
# Track frame offsets:
#	150
#	64124
#	121499
#	151582
#	198526
#	242705
#	275969
#
# Disc length: 4039 seconds
#
# Revision: 1
# Processed by: cddbd v1.5.2PL0 Copyright (c) Steve Scherf et al.
# Submitted via: audiograbber 1.83.01
#
DISCID=630fc507
DTITLE=Grateful Dead - 92-03-20 Copps Coliseum, Hamilton, Ontario, Canada
DYEAR=1900
DGENRE=
TTITLE0=Dark Star
TTITLE1=Drums
TTITLE2=Space
TTITLE3=The Other One
TTITLE4=Standing On The Moon
TTITLE5=Turn On Your Lovelight
TTITLE6=US Blues
EXTD=
EXTT0=
EXTT1=
EXTT2=
EXTT3=
EXTT4=
EXTT5=
EXTT6=
PLAYORDER=
